<?xml version="1.0" encoding="utf-8"?>
<!-- Generator: Adobe Illustrator 17.1.0, SVG Export Plug-In . SVG Version: 6.00 Build 0)  -->
<!DOCTYPE svg PUBLIC "-//W3C//DTD SVG 1.1//EN" "http://www.w3.org/Graphics/SVG/1.1/DTD/svg11.dtd">
<svg version="1.1" xmlns="http://www.w3.org/2000/svg" xmlns:xlink="http://www.w3.org/1999/xlink" x="0px" y="0px"
	 viewBox="0 0 180 90" enable-background="new 0 0 180 90" xml:space="preserve">
<g id="BG">
</g>
<g id="Layer_1">
	<g>
		<g>
			<path fill="#FFFFFF" d="M15,17.8h2.7v12.6l-0.1,5.7c3-2.5,6.5-4.5,10.1-4.5c7.8,0,11.6,5.8,11.6,14.8c0,9.9-6,15.7-12.8,15.7
				c-2.8,0-6-1.3-8.7-3.5h-0.1l-0.3,2.7H15V17.8z M26.3,59.7c5.9,0,10.1-5.5,10.1-13.3c0-7.1-2.5-12.5-9.2-12.5
				c-2.9,0-6.1,1.7-9.5,4.8V56C20.9,58.7,24,59.7,26.3,59.7z"/>
			<path fill="#FFFFFF" d="M49.6,32.3h2.3l0.2,5.4h0.2c1.9-3.6,4.8-6.1,8.2-6.1c1.1,0,1.9,0.1,2.9,0.6l-0.6,2.4
				c-1-0.4-1.5-0.5-2.7-0.5c-2.6,0-5.7,2-7.9,7.5v19.8h-2.7V32.3z"/>
			<path fill="#FFFFFF" d="M69.4,22.9c0-1.5,1.1-2.4,2.4-2.4c1.3,0,2.4,0.9,2.4,2.4c0,1.4-1.1,2.4-2.4,2.4
				C70.5,25.3,69.4,24.3,69.4,22.9z M70.4,32.3h2.7v29.1h-2.7V32.3z"/>
			<path fill="#FFFFFF" d="M103.1,43.2c0.1-4.4-1.2-9.2-6.8-9.2c-3.9,0-7.3,1.9-9.3,3.4l-1.2-2c2.1-1.5,6.1-3.8,10.8-3.8
				c6.9,0,9.2,5,9.2,11.2v18.6h-2.2l-0.3-3.8h-0.1c-3,2.4-6.5,4.5-10.3,4.5c-4.6,0-8.5-2.5-8.5-8C84.3,47.7,90.2,44.6,103.1,43.2z
				 M93.2,59.8c3.3,0,6.3-1.6,9.9-4.7v-9.9c-11.9,1.4-16,4.2-16,8.8C87.1,58.2,89.9,59.8,93.2,59.8z"/>
			<path fill="#FFFFFF" d="M117.8,32.3h2.3l0.2,4.5h0.2c3-3,6-5.2,10-5.2c6,0,8.8,3.6,8.8,11.1v18.7h-2.7V43.1
				c0-6.2-1.9-9.1-6.7-9.1c-3.5,0-5.9,1.8-9.5,5.5v21.9h-2.7V32.3z"/>
		</g>
		<g>
			<path fill="#FFFFFF" d="M165,62.1c0,1.3-0.3,2.8-0.8,4.4c-0.5,1.6-1.3,3.2-2.3,4.9c-1,1.6-2.1,3.2-3.5,4.7
				c-1.4,1.5-2.9,2.9-4.5,4.1l-2.4-1.8c0.8-1,1.6-1.9,2.2-2.9c0.6-0.9,1.1-1.9,1.5-2.9s0.7-2,0.9-3.1c0.2-1.1,0.3-2.3,0.3-3.6
				c0-1.4-0.5-2.5-1.4-3.4c-0.9-0.9-2.4-1.3-4.3-1.2l-0.7-2.6c0.3-0.4,0.9-0.8,1.8-1.3s2-1,3.2-1.4s2.3-0.8,3.5-1.2
				c1.1-0.3,2-0.5,2.6-0.4c1.4,0.7,2.5,1.7,3,2.9C164.7,58.6,165,60.2,165,62.1z"/>
		</g>
	</g>
</g>
</svg>
